<svg xmlns:dc="http://purl.org/dc/elements/1.1/" xmlns:cc="http://creativecommons.org/ns#"
    xmlns:rdf="http://www.w3.org/1999/02/22-rdf-syntax-ns#" xmlns:svg="http://www.w3.org/2000/svg"
    xmlns="http://www.w3.org/2000/svg" xmlns:xlink="http://www.w3.org/1999/xlink" id="svg11507" viewBox="245 360 540 50"
    height="100px" width="400px" version="1.1">
    <metadata id="metadata11513">
        <rdf:rdf>
            <cc:work rdf:about="">
                <dc:format>image/svg+xml</dc:format>
                <dc:type rdf:resource="http://purl.org/dc/dcmitype/StillImage"></dc:type>
            </cc:work>
        </rdf:rdf>
    </metadata>
    <defs id="defs11511"></defs>
    <linearGradient spreadMethod="pad" y2="20%" x2="-10%" y1="120%" x1="30%"
        id="3d_gradient2-logo-18643f85-df6a-4f63-98e0-50f2c767c2ce">
        <stop id="stop11488" stop-opacity="1" stop-color="#ffffff" offset="0%"></stop>
        <stop id="stop11490" stop-opacity="1" stop-color="#000000" offset="100%"></stop>
    </linearGradient>
    <linearGradient gradientTransform="rotate(-30)" spreadMethod="pad" y2="20%" x2="-10%" y1="120%" x1="30%"
        id="3d_gradient3-logo-18643f85-df6a-4f63-98e0-50f2c767c2ce">
        <stop id="stop11493" stop-opacity="1" stop-color="#ffffff" offset="0%"></stop>
        <stop id="stop11495" stop-opacity="1" stop-color="#cccccc" offset="50%"></stop>
        <stop id="stop11497" stop-opacity="1" stop-color="#000000" offset="100%"></stop>
    </linearGradient>
    <g id="logo-group">
        <g id="logo-center" transform="translate(198.77675999999997 0)">
            <g id="slogan"
                style="font-style:normal;font-weight:400;font-size:32px;line-height:1;font-family:Raleway;font-variant-ligatures:none;text-align:center;text-anchor:middle"
                transform="translate(0 0)"></g>
            <g id="title"
                style="font-style:normal;font-weight:700;font-size:72px;line-height:1;font-family:“Comfortaa Bold Alt2”;font-variant-ligatures:none;text-align:center;text-anchor:middle"
                transform="translate(0 0)">
                <path id="path11516"
                    style="font-style:normal;font-weight:700;font-size:72px;line-height:1;font-family:“Comfortaa Bold Alt2”;font-variant-ligatures:none;text-align:center;text-anchor:middle"
                    d="m 229.7825,-54.288 c -2.52,-1.296 -5.4,-1.944 -8.568,-1.944 h -17.208 c -1.08,0 -1.944,0.36 -2.664,1.08 -0.72,0.72 -1.08,1.584 -1.08,2.664 v 48.744 c 0,1.08 0.36,1.944 1.08,2.664 0.72,0.72 1.584,1.08 2.664,1.08 h 18.72 c 3.528,0 6.696,-0.72 9.504,-2.16 2.808,-1.44 4.968,-3.456 6.552,-6.048 1.584,-2.592 2.376,-5.472 2.376,-8.784 0,-3.528 -0.936,-6.48 -2.808,-8.784 -1.872,-2.304 -4.464,-3.816 -7.704,-4.608 2.16,-1.152 3.888,-2.664 5.184,-4.536 1.296,-1.872 1.944,-3.96 1.944,-6.336 0,-2.88 -0.72,-5.4 -2.16,-7.704 -1.44,-2.304 -3.384,-4.032 -5.832,-5.328 z m -1.8,19.08 c -1.728,1.44 -3.96,2.088 -6.768,2.088 h -13.464 v -16.2 h 13.464 c 2.808,0 5.04,0.72 6.768,2.088 1.728,1.368 2.592,3.384 2.592,5.976 0,2.664 -0.864,4.68 -2.592,6.048 z m 2.88,25.704 c -2.088,1.728 -4.824,2.592 -8.136,2.592 h -14.976 v -19.296 h 14.976 c 3.384,0 6.12,0.792 8.136,2.376 2.016,1.584 3.096,3.888 3.096,6.84 0,3.24 -1.08,5.76 -3.096,7.488 z"
                    stroke-width="0" stroke-linejoin="miter" stroke-miterlimit="2" fill="#5b606d" stroke="#5b606d"
                    transform="translate(0 296.76448) translate(50 67.99423999999999) scale(0.68) translate(-200.2625 56.232)">
                </path>
                <path id="path11518"
                    style="font-style:normal;font-weight:700;font-size:72px;line-height:1;font-family:“Comfortaa Bold Alt2”;font-variant-ligatures:none;text-align:center;text-anchor:middle"
                    d="m 253.30175,-38.376 c -0.72,0.72 -1.008,1.584 -1.008,2.664 v 32.04 c 0,1.08 0.288,1.944 1.008,2.664 0.72,0.72 1.584,1.008 2.664,1.008 1.08,0 1.944,-0.288 2.664,-1.008 0.648,-0.72 1.008,-1.584 1.008,-2.664 v -32.04 c 0,-1.08 -0.36,-1.944 -1.008,-2.664 -0.72,-0.648 -1.584,-1.008 -2.664,-1.008 -1.08,0 -1.944,0.36 -2.664,1.008 z m 5.976,-15.48 c -0.936,-0.936 -2.016,-1.44 -3.312,-1.44 -1.296,0 -2.448,0.504 -3.384,1.44 -0.936,0.936 -1.368,2.016 -1.368,3.312 0,1.296 0.432,2.448 1.368,3.384 0.936,0.936 2.088,1.368 3.384,1.368 1.296,0 2.376,-0.432 3.312,-1.368 0.936,-0.936 1.44,-2.088 1.44,-3.384 0,-1.296 -0.504,-2.376 -1.44,-3.312 z"
                    stroke-width="0" stroke-linejoin="miter" stroke-miterlimit="2" fill="#5f6276" stroke="#5f6276"
                    transform="translate(0 296.76448) translate(91.44685 68.63072) scale(0.68) translate(-251.21375 55.296)">
                </path>
                <path id="path11520"
                    style="font-style:normal;font-weight:700;font-size:72px;line-height:1;font-family:“Comfortaa Bold Alt2”;font-variant-ligatures:none;text-align:center;text-anchor:middle"
                    d="m 272.93862,-55.224 c -0.72,0.72 -1.00799,1.584 -1.00799,2.592 v 39.312 c 0,2.592 0.43199,4.896 1.368,6.912 0.86399,2.016 2.15999,3.6 3.81599,4.752 1.656,1.152 3.528,1.656 5.616,1.656 h 0.144 c 1.44,0 2.59201,-0.288 3.528,-1.008 0.864,-0.648 1.368,-1.512 1.368,-2.592 0,-1.008 -0.36,-1.872 -0.93599,-2.592 -0.57601,-0.648 -1.368,-1.008 -2.30401,-1.008 h -1.8 c -1.08,0 -1.94399,-0.576 -2.592,-1.728 -0.71999,-1.152 -1.008,-2.592 -1.008,-4.392 v -39.312 c 0,-1.008 -0.36,-1.872 -1.008,-2.592 -0.72,-0.648 -1.58399,-1.008 -2.592,-1.008 -1.08,0 -1.94399,0.36 -2.592,1.008 z"
                    stroke-width="0" stroke-linejoin="miter" stroke-miterlimit="2" fill="#63657f" stroke="#63657f"
                    transform="translate(0 296.76448) translate(112.33432839999999 67.99423999999999) scale(0.68) translate(-271.93063 56.232)">
                </path>
                <path id="path11522"
                    style="font-style:normal;font-weight:700;font-size:72px;line-height:1;font-family:“Comfortaa Bold Alt2”;font-variant-ligatures:none;text-align:center;text-anchor:middle"
                    d="m 296.75488,-38.376 c -0.72001,0.72 -1.00801,1.584 -1.00801,2.664 v 32.04 c 0,1.08 0.288,1.944 1.00801,2.664 0.71999,0.72 1.584,1.008 2.664,1.008 1.07999,0 1.94399,-0.288 2.66399,-1.008 0.64801,-0.72 1.008,-1.584 1.008,-2.664 v -32.04 c 0,-1.08 -0.35999,-1.944 -1.008,-2.664 -0.72,-0.648 -1.584,-1.008 -2.66399,-1.008 -1.08,0 -1.94401,0.36 -2.664,1.008 z m 5.976,-15.48 c -0.93601,-0.936 -2.01601,-1.44 -3.312,-1.44 -1.296,0 -2.44801,0.504 -3.38401,1.44 -0.93599,0.936 -1.368,2.016 -1.368,3.312 0,1.296 0.43201,2.448 1.368,3.384 0.936,0.936 2.08801,1.368 3.38401,1.368 1.29599,0 2.37599,-0.432 3.312,-1.368 0.93599,-0.936 1.44,-2.088 1.44,-3.384 0,-1.296 -0.50401,-2.376 -1.44,-3.312 z"
                    stroke-width="0" stroke-linejoin="miter" stroke-miterlimit="2" fill="#676789" stroke="#676789"
                    transform="translate(0 296.76448) translate(134.5949716 68.63072) scale(0.68) translate(-294.66687 55.296)">
                </path>
                <path id="path11524"
                    style="font-style:normal;font-weight:700;font-size:72px;line-height:1;font-family:“Comfortaa Bold Alt2”;font-variant-ligatures:none;text-align:center;text-anchor:middle"
                    d="m 350.87975,-5.544 c -3.888,3.96 -8.568,5.904 -14.112,5.904 -5.544,0 -10.224,-1.944 -14.112,-5.904 -3.888,-3.888 -5.832,-8.568 -5.832,-14.112 v -33.12 c 0,-0.936 0.288,-1.728 1.008,-2.448 0.648,-0.648 1.44,-1.008 2.448,-1.008 0.936,0 1.728,0.36 2.376,1.008 0.72,0.72 1.08,1.512 1.08,2.448 v 18 c 3.672,-3.24 8.064,-4.824 13.032,-4.824 5.544,0 10.224,1.944 14.112,5.832 3.888,3.888 5.904,8.64 5.904,14.112 0,5.544 -2.016,10.224 -5.904,14.112 z m -14.112,-27.144 c -3.6,0 -6.696,1.296 -9.216,3.816 -2.592,2.52 -3.816,5.616 -3.816,9.216 0,3.6 1.224,6.696 3.816,9.288 2.52,2.52 5.616,3.816 9.216,3.816 3.6,0 6.696,-1.296 9.216,-3.816 2.592,-2.592 3.888,-5.688 3.888,-9.288 0,-3.6 -1.296,-6.696 -3.888,-9.216 -2.52,-2.52 -5.616,-3.816 -9.216,-3.816 z"
                    stroke-width="0" stroke-linejoin="miter" stroke-miterlimit="2" fill="#6b6a92" stroke="#6b6a92"
                    transform="translate(0 296.76448) translate(156.46165000000002 67.99423999999999) scale(0.68) translate(-316.82375 56.232)">
                </path>
                <path id="path11526"
                    style="font-style:normal;font-weight:700;font-size:72px;line-height:1;font-family:“Comfortaa Bold Alt2”;font-variant-ligatures:none;text-align:center;text-anchor:middle"
                    d="m 369.17675,-38.376 c -0.72,0.72 -1.008,1.584 -1.008,2.664 v 32.04 c 0,1.08 0.288,1.944 1.008,2.664 0.72,0.72 1.584,1.008 2.664,1.008 1.08,0 1.944,-0.288 2.664,-1.008 0.648,-0.72 1.008,-1.584 1.008,-2.664 v -32.04 c 0,-1.08 -0.36,-1.944 -1.008,-2.664 -0.72,-0.648 -1.584,-1.008 -2.664,-1.008 -1.08,0 -1.944,0.36 -2.664,1.008 z m 5.976,-15.48 c -0.936,-0.936 -2.016,-1.44 -3.312,-1.44 -1.296,0 -2.448,0.504 -3.384,1.44 -0.936,0.936 -1.368,2.016 -1.368,3.312 0,1.296 0.432,2.448 1.368,3.384 0.936,0.936 2.088,1.368 3.384,1.368 1.296,0 2.376,-0.432 3.312,-1.368 0.936,-0.936 1.44,-2.088 1.44,-3.384 0,-1.296 -0.504,-2.376 -1.44,-3.312 z"
                    stroke-width="0" stroke-linejoin="miter" stroke-miterlimit="2" fill="#6f6c9b" stroke="#6f6c9b"
                    transform="translate(0 296.76448) translate(197.44185000000002 68.63072) scale(0.68) translate(-367.08875 55.296)">
                </path>
                <path id="path11528"
                    style="font-style:normal;font-weight:700;font-size:72px;line-height:1;font-family:“Comfortaa Bold Alt2”;font-variant-ligatures:none;text-align:center;text-anchor:middle"
                    d="m 388.81362,-55.224 c -0.72,0.72 -1.00799,1.584 -1.00799,2.592 v 39.312 c 0,2.592 0.43199,4.896 1.368,6.912 0.86399,2.016 2.15999,3.6 3.81599,4.752 1.656,1.152 3.528,1.656 5.616,1.656 h 0.144 c 1.44,0 2.59201,-0.288 3.528,-1.008 0.864,-0.648 1.368,-1.512 1.368,-2.592 0,-1.008 -0.36,-1.872 -0.93599,-2.592 -0.57601,-0.648 -1.368,-1.008 -2.30401,-1.008 h -1.8 c -1.08,0 -1.94399,-0.576 -2.592,-1.728 -0.71999,-1.152 -1.008,-2.592 -1.008,-4.392 v -39.312 c 0,-1.008 -0.36,-1.872 -1.008,-2.592 -0.72,-0.648 -1.58399,-1.008 -2.592,-1.008 -1.08,0 -1.94399,0.36 -2.592,1.008 z"
                    stroke-width="0" stroke-linejoin="miter" stroke-miterlimit="2" fill="#736ea4" stroke="#736ea4"
                    transform="translate(0 296.76448) translate(218.3293284 67.99423999999999) scale(0.68) translate(-387.80563 56.232)">
                </path>
                <path id="path11530"
                    style="font-style:normal;font-weight:700;font-size:72px;line-height:1;font-family:“Comfortaa Bold Alt2”;font-variant-ligatures:none;text-align:center;text-anchor:middle"
                    d="m 412.62988,-38.376 c -0.72001,0.72 -1.00801,1.584 -1.00801,2.664 v 32.04 c 0,1.08 0.288,1.944 1.00801,2.664 0.71999,0.72 1.584,1.008 2.664,1.008 1.07999,0 1.94399,-0.288 2.66399,-1.008 0.64801,-0.72 1.008,-1.584 1.008,-2.664 v -32.04 c 0,-1.08 -0.35999,-1.944 -1.008,-2.664 -0.72,-0.648 -1.584,-1.008 -2.66399,-1.008 -1.08,0 -1.94401,0.36 -2.664,1.008 z m 5.976,-15.48 c -0.93601,-0.936 -2.01601,-1.44 -3.312,-1.44 -1.296,0 -2.44801,0.504 -3.38401,1.44 -0.93599,0.936 -1.368,2.016 -1.368,3.312 0,1.296 0.43201,2.448 1.368,3.384 0.936,0.936 2.08801,1.368 3.38401,1.368 1.29599,0 2.37599,-0.432 3.312,-1.368 0.93599,-0.936 1.44,-2.088 1.44,-3.384 0,-1.296 -0.50401,-2.376 -1.44,-3.312 z"
                    stroke-width="0" stroke-linejoin="miter" stroke-miterlimit="2" fill="#7771ad" stroke="#7771ad"
                    transform="translate(0 296.76448) translate(240.5899716 68.63072) scale(0.68) translate(-410.54187 55.296)">
                </path>
                <path id="path11532"
                    style="font-style:normal;font-weight:700;font-size:72px;line-height:1;font-family:“Comfortaa Bold Alt2”;font-variant-ligatures:none;text-align:center;text-anchor:middle"
                    d="m 493.4645,-5.976 c -0.72,-0.576 -1.584,-0.936 -2.664,-0.936 h -28.8 v -18 h 20.664 c 1.008,0 1.872,-0.288 2.592,-0.936 0.72,-0.648 1.08,-1.512 1.08,-2.52 0,-1.008 -0.36,-1.8 -1.08,-2.448 -0.72,-0.648 -1.584,-1.008 -2.592,-1.008 h -20.664 V -49.32 h 28.8 c 1.08,0 1.944,-0.288 2.664,-0.936 0.648,-0.576 1.008,-1.44 1.008,-2.448 0,-1.008 -0.36,-1.872 -1.008,-2.52 -0.72,-0.648 -1.584,-1.008 -2.664,-1.008 h -32.544 c -1.08,0 -1.944,0.36 -2.664,1.08 -0.72,0.72 -1.08,1.584 -1.08,2.664 v 48.744 c 0,1.08 0.36,1.944 1.08,2.664 0.72,0.72 1.584,1.08 2.664,1.08 h 32.544 c 1.08,0 1.944,-0.288 2.664,-0.936 0.648,-0.648 1.008,-1.512 1.008,-2.592 0,-1.008 -0.36,-1.8 -1.008,-2.448 z"
                    stroke-width="0" stroke-linejoin="miter" stroke-miterlimit="2" fill="#7b73b7" stroke="#7b73b7"
                    transform="translate(0 296.76448) translate(277.29 67.99423999999999) scale(0.68) translate(-454.5125 56.232)">
                </path>
                <path id="path11534"
                    style="font-style:normal;font-weight:700;font-size:72px;line-height:1;font-family:“Comfortaa Bold Alt2”;font-variant-ligatures:none;text-align:center;text-anchor:middle"
                    d="m 537.32825,0.216 c 1.008,0 1.872,-0.36 2.592,-1.08 0.72,-0.72 1.008,-1.584 1.008,-2.592 V -21.96 c 0,-5.04 -1.8,-9.36 -5.328,-12.96 -3.6,-3.6 -7.992,-5.4 -13.032,-5.4 -5.112,0 -9.432,1.8 -13.032,5.4 -3.6,3.6 -5.4,7.92 -5.4,12.96 v 18.504 c 0,1.008 0.36,1.872 1.08,2.592 0.72,0.72 1.584,1.008 2.52,1.008 1.008,0 1.872,-0.288 2.592,-1.008 0.72,-0.72 1.008,-1.584 1.008,-2.592 V -21.96 c 0,-3.024 1.152,-5.688 3.312,-7.848 2.16,-2.232 4.824,-3.312 7.92,-3.312 3.096,0 5.688,1.08 7.92,3.312 2.16,2.16 3.24,4.824 3.24,7.848 v 18.576 c 0,0.936 0.36,1.8 1.08,2.52 0.72,0.72 1.584,1.08 2.52,1.08 z"
                    stroke-width="0" stroke-linejoin="miter" stroke-miterlimit="2" fill="#7f76c0" stroke="#7f76c0"
                    transform="translate(0 296.76448) translate(317.83415 78.81439999999999) scale(0.68) translate(-504.13625 40.32)">
                </path>
                <path id="path11536"
                    style="font-style:normal;font-weight:700;font-size:72px;line-height:1;font-family:“Comfortaa Bold Alt2”;font-variant-ligatures:none;text-align:center;text-anchor:middle"
                    d="m 581.72637,-37.584 c -2.664,-1.44 -5.616,-2.16 -8.928,-2.16 -2.448,0 -4.67999,0.432 -6.76799,1.296 -2.16001,0.864 -3.96,2.016 -5.47201,3.528 v -17.64 c 0,-1.08 -0.35999,-1.944 -1.00799,-2.664 -0.72001,-0.648 -1.58401,-1.008 -2.664,-1.008 -1.08001,0 -1.94401,0.36 -2.664,1.008 -0.72,0.72 -1.008,1.584 -1.008,2.664 V -3.6 c 0,1.08 0.288,1.944 1.008,2.664 0.71999,0.72 1.58399,1.008 2.664,1.008 1.07999,0 1.94399,-0.288 2.664,-1.008 0.648,-0.72 1.00799,-1.584 1.00799,-2.664 v -20.304 c 0,-1.728 0.432,-3.24 1.368,-4.68 0.93601,-1.368 2.232,-2.448 3.88801,-3.312 1.65599,-0.792 3.52799,-1.224 5.544,-1.224 3.456,0 6.192,1.008 8.27999,3.024 2.088,2.016 3.168,4.896 3.168,8.784 V -3.6 c 0,1.08 0.28801,1.944 1.00801,2.664 0.71999,0.72 1.58399,1.008 2.664,1.008 1.00799,0 1.87199,-0.288 2.592,-1.008 0.72,-0.72 1.07999,-1.584 1.07999,-2.664 v -17.712 c 0,-3.888 -0.79199,-7.2 -2.232,-9.936 -1.51199,-2.736 -3.59999,-4.896 -6.192,-6.336 z"
                    stroke-width="0" stroke-linejoin="miter" stroke-miterlimit="2" fill="#8378c9" stroke="#8378c9"
                    transform="translate(0 296.76448) translate(358.00727839999996 67.99423999999999) scale(0.68) translate(-553.21438 56.232)">
                </path>
                <path id="path11538"
                    style="font-style:normal;font-weight:700;font-size:72px;line-height:1;font-family:“Comfortaa Bold Alt2”;font-variant-ligatures:none;text-align:center;text-anchor:middle"
                    d="m 634.25712,-33.768 c -3.88799,-3.888 -8.568,-5.904 -14.112,-5.904 -5.47199,0 -10.224,2.016 -14.11199,5.904 -3.88801,3.888 -5.832,8.568 -5.832,14.112 0,5.544 1.94399,10.224 5.832,14.112 3.88799,3.888 8.64,5.832 14.11199,5.832 4.968,0 9.36001,-1.584 13.10401,-4.824 v 1.368 c 0,1.008 0.288,1.8 1.00799,2.448 0.648,0.72 1.44001,1.008 2.448,1.008 0.936,0 1.72801,-0.288 2.44801,-1.008 0.64799,-0.648 1.00799,-1.44 1.00799,-2.448 v -16.488 c 0,-5.544 -1.944,-10.224 -5.904,-14.112 z m -14.112,27.144 c -3.6,0 -6.696,-1.224 -9.216,-3.816 -2.59199,-2.52 -3.816,-5.616 -3.816,-9.216 0,-3.6 1.22401,-6.696 3.816,-9.216 2.52,-2.592 5.616,-3.888 9.216,-3.888 3.60001,0 6.69601,1.296 9.21601,3.888 2.59199,2.52 3.888,5.616 3.888,9.216 0,3.6 -1.29601,6.696 -3.888,9.216 -2.52,2.592 -5.616,3.816 -9.21601,3.816 z"
                    stroke-width="0" stroke-linejoin="miter" stroke-miterlimit="2" fill="#877ad2" stroke="#877ad2"
                    transform="translate(0 296.76448) translate(396.7582684 79.25504000000001) scale(0.68) translate(-600.20113 39.672)">
                </path>
                <path id="path11540"
                    style="font-style:normal;font-weight:700;font-size:72px;line-height:1;font-family:“Comfortaa Bold Alt2”;font-variant-ligatures:none;text-align:center;text-anchor:middle"
                    d="m 684.28138,0.216 c 1.008,0 1.87199,-0.36 2.59199,-1.08 0.72001,-0.72 1.00801,-1.584 1.00801,-2.592 V -21.96 c 0,-5.04 -1.80001,-9.36 -5.32801,-12.96 -3.59999,-3.6 -7.992,-5.4 -13.03199,-5.4 -5.11201,0 -9.432,1.8 -13.03201,5.4 -3.6,3.6 -5.39999,7.92 -5.39999,12.96 v 18.504 c 0,1.008 0.36,1.872 1.07999,2.592 0.72,0.72 1.584,1.008 2.52001,1.008 1.00799,0 1.87199,-0.288 2.592,-1.008 0.72,-0.72 1.00799,-1.584 1.00799,-2.592 V -21.96 c 0,-3.024 1.152,-5.688 3.312,-7.848 2.16001,-2.232 4.82401,-3.312 7.92001,-3.312 3.096,0 5.688,1.08 7.91999,3.312 2.16,2.16 3.24,4.824 3.24,7.848 v 18.576 c 0,0.936 0.36001,1.8 1.08001,2.52 0.71999,0.72 1.58399,1.08 2.52,1.08 z"
                    stroke-width="0" stroke-linejoin="miter" stroke-miterlimit="2" fill="#8b7ddb" stroke="#8b7ddb"
                    transform="translate(0 296.76448) translate(438.16227840000005 78.81439999999999) scale(0.68) translate(-651.08938 40.32)">
                </path>
                <path id="path11542"
                    style="font-style:normal;font-weight:700;font-size:72px;line-height:1;font-family:“Comfortaa Bold Alt2”;font-variant-ligatures:none;text-align:center;text-anchor:middle"
                    d="m 731.7755,-33.192 c -3.744,-4.32 -8.496,-6.48 -14.112,-6.48 -3.744,0 -7.128,0.864 -10.08,2.592 -3.024,1.728 -5.328,4.104 -6.984,7.128 -1.656,3.024 -2.448,6.48 -2.448,10.296 0,3.744 0.792,7.2 2.52,10.224 1.728,3.024 4.104,5.4 7.128,7.128 3.024,1.728 6.408,2.592 10.224,2.592 5.184,0 9.504,-1.584 12.96,-4.824 0.576,-0.576 0.864,-1.224 0.864,-1.944 0,-0.936 -0.504,-1.8 -1.368,-2.592 -0.576,-0.432 -1.224,-0.648 -1.872,-0.648 -0.864,0 -1.8,0.36 -2.664,1.008 -2.016,1.728 -4.68,2.52 -7.92,2.52 -2.52,0 -4.752,-0.576 -6.696,-1.728 -1.944,-1.152 -3.456,-2.736 -4.536,-4.752 -1.08,-2.016 -1.584,-4.392 -1.584,-6.984 0,-4.032 1.152,-7.344 3.456,-9.792 2.304,-2.448 5.256,-3.744 9,-3.744 1.8,0 3.384,0.36 4.824,0.936 1.44,0.576 2.736,1.512 3.96,2.808 0.72,0.864 1.656,1.296 2.808,1.296 0.576,0 1.152,-0.144 1.656,-0.504 1.008,-0.72 1.584,-1.584 1.584,-2.664 0,-0.72 -0.288,-1.296 -0.72,-1.872 z"
                    stroke-width="0" stroke-linejoin="miter" stroke-miterlimit="2" fill="#8f7fe5" stroke="#8f7fe5"
                    transform="translate(0 296.76448) translate(476.96452000000005 79.25504000000001) scale(0.68) translate(-698.1515 39.672)">
                </path>
                <path id="path11544"
                    style="font-style:normal;font-weight:700;font-size:72px;line-height:1;font-family:“Comfortaa Bold Alt2”;font-variant-ligatures:none;text-align:center;text-anchor:middle"
                    d="m 760.4,0.288 c 4.752,0 8.928,-1.44 12.6,-4.464 0.792,-0.576 1.152,-1.368 1.296,-2.304 0.072,-1.008 -0.144,-1.8 -0.792,-2.592 -0.576,-0.72 -1.368,-1.152 -2.304,-1.224 -0.936,-0.072 -1.8,0.144 -2.52,0.792 -2.448,1.944 -5.184,2.88 -8.28,2.88 -3.6,0 -6.696,-1.224 -9.216,-3.816 -2.592,-2.52 -3.816,-5.616 -3.816,-9.216 0,-3.6 1.224,-6.696 3.816,-9.288 2.52,-2.52 5.616,-3.816 9.216,-3.816 2.952,0 5.616,0.936 7.992,2.736 2.304,1.8 3.816,4.104 4.608,6.912 h -12.6 c -0.936,0 -1.8,0.36 -2.448,1.008 -0.648,0.648 -1.008,1.512 -1.008,2.448 0,0.936 0.36,1.8 1.008,2.448 0.648,0.648 1.512,1.008 2.448,1.008 h 16.56 c 0.936,0 1.728,-0.36 2.376,-1.008 0.72,-0.648 1.08,-1.512 1.08,-2.448 0,-5.544 -2.016,-10.224 -5.904,-14.112 -3.888,-3.888 -8.568,-5.904 -14.112,-5.904 -5.544,0 -10.224,2.016 -14.112,5.904 -3.888,3.888 -5.832,8.568 -5.832,14.112 0,5.544 1.944,10.224 5.832,14.112 3.888,3.888 8.568,5.832 14.112,5.832 z"
                    stroke-width="0" stroke-linejoin="miter" stroke-miterlimit="2" fill="#9382ee" stroke="#9382ee"
                    transform="translate(0 296.76448) translate(512.53158 79.25504000000001) scale(0.68) translate(-740.456 39.672)">
                </path>
                <path id="path11546"
                    style="font-style:normal;font-weight:700;font-size:72px;line-height:1;font-family:“Comfortaa Bold Alt2”;font-variant-ligatures:none;text-align:center;text-anchor:middle"
                    d="m 790.3205,-5.544 c 3.888,3.96 8.568,5.904 14.112,5.904 5.544,0 10.224,-1.944 14.112,-5.904 3.888,-3.888 5.904,-8.568 5.904,-14.112 v -33.12 c 0,-0.936 -0.36,-1.728 -1.08,-2.448 -0.648,-0.648 -1.44,-1.008 -2.376,-1.008 -1.008,0 -1.8,0.36 -2.448,1.008 -0.72,0.72 -1.008,1.512 -1.008,2.448 v 18 c -3.744,-3.24 -8.136,-4.824 -13.104,-4.824 -5.544,0 -10.224,1.944 -14.112,5.832 -3.888,3.888 -5.832,8.64 -5.832,14.112 0,5.544 1.944,10.224 5.832,14.112 z m 14.112,-27.144 c 3.6,0 6.696,1.296 9.216,3.816 2.592,2.52 3.888,5.616 3.888,9.216 0,3.6 -1.296,6.696 -3.888,9.288 -2.52,2.52 -5.616,3.816 -9.216,3.816 -3.6,0 -6.696,-1.296 -9.216,-3.816 -2.592,-2.592 -3.816,-5.688 -3.816,-9.288 0,-3.6 1.224,-6.696 3.816,-9.216 2.52,-2.52 5.616,-3.816 9.216,-3.816 z"
                    stroke-width="0" stroke-linejoin="miter" stroke-miterlimit="2" fill="#9784f7" stroke="#9784f7"
                    transform="translate(0 296.76448) translate(549.27368 67.99423999999999) scale(0.68) translate(-784.4885 56.232)">
                </path>
            </g>
        </g>
    </g>
</svg>